# xmcd
#
# Track frame offsets:
#	183
#	10358
#	23923
#	34763
#	45508
#	55558
#	68250
#	78088
#	89495
#	101378
#	112853
#	130003
#	140688
#	150490
#
# Disc length: 2137
#
# Revision: 1
# Processed by: cddbd v1.5.1PL0 Copyright (c) Steve Scherf et al.
# Submitted via: ExactAudioCopy v0.90b4
# Normalized: r0:DSETVAR1
#
DISCID=9b08570e
DTITLE=Various Artist - Country Time CD2
DYEAR=1994
DGENRE=
TTITLE0=Merle Travis - Divorce Me C.O.D.
TTITLE1=Kitty Wells - Making Believe
TTITLE2=Jim Reeves - My Rambling Heart
TTITLE3=Lynn Anderson - Heaven's Just A Sin Away
TTITLE4=Webb Pierce - Missing You
TTITLE5=Billy Walker - Circumstances
TTITLE6=David Houston - You Mean The World To Me
TTITLE7=Dave Dudley - Six Days On The Road
TTITLE8=Tommy Overstreet - Gwen (Congratulations)
TTITLE9=The Oak Ridge Boys - Time Has Made A Change In Me
TTITLE10=Stonewall Jackson - I Washed My Hands In Muddy Water
TTITLE11=Billie Jo Spears - I'm So Lonesome I Could Cry
TTITLE12=Warner Mack - Love Hungry
TTITLE13=Kenny Rogers - Once Again She's All Alone
EXTD=
EXTT0=
EXTT1=
EXTT2=
EXTT3=
EXTT4=
EXTT5=
EXTT6=
EXTT7=
EXTT8=
EXTT9=
EXTT10=
EXTT11=
EXTT12=
EXTT13=
PLAYORDER=
